<?xml version="1.0" encoding="UTF-8" standalone="no"?>
<!DOCTYPE svg PUBLIC "-//W3C//DTD SVG 1.1//EN" "http://www.w3.org/Graphics/SVG/1.1/DTD/svg11.dtd">
<svg width="100%" height="100%" viewBox="0 0 1903 886" version="1.1" xmlns="http://www.w3.org/2000/svg" xmlns:xlink="http://www.w3.org/1999/xlink" xml:space="preserve" xmlns:serif="http://www.serif.com/" style="fill-rule:evenodd;clip-rule:evenodd;stroke-linejoin:round;stroke-miterlimit:2;">
    <g transform="matrix(1,0,0,1,-258.029,-610.566)">
        <g transform="matrix(1,0,0,1,90.3719,-1522.98)">
            <g transform="matrix(1.22933,0,0,1,-460.529,1330.44)">
                <rect x="511" y="1471" width="1548" height="218" style="fill:rgb(255,201,0);"/>
            </g>
            <path d="M360.953,2910.44C357.69,2888.26 356,2865.57 356,2842.5C356,2586.69 563.687,2379 819.5,2379C1075.31,2379 1283,2586.69 1283,2842.5C1283,2865.57 1281.31,2888.26 1278.05,2910.44L360.953,2910.44Z" style="fill:rgb(255,201,0);"/>
            <path d="M1047.67,2525.29L1047.67,2174.89C1047.67,2174.89 1540.33,2174.89 1540.33,2174.89C1540.33,2174.89 1540.33,2470.84 1540.33,2470.84C1540.33,2482.26 1549.59,2491.51 1561,2491.51L1958.33,2491.51C1958.33,2491.51 1958.33,2910.44 1958.33,2910.44L1999.67,2910.44L1999.67,2470.84C1999.67,2459.43 1990.41,2450.17 1979,2450.17L1581.67,2450.17C1581.67,2450.17 1581.67,2154.22 1581.67,2154.22C1581.67,2142.8 1572.41,2133.55 1561,2133.55L1027,2133.55C1015.59,2133.55 1006.33,2142.8 1006.33,2154.22L1006.33,2525.29L1047.67,2525.29Z" style="fill:rgb(255,201,0);"/>
            <g transform="matrix(0.415284,-0.486482,0.486482,0.415284,-712.464,1879.27)">
                <path d="M258.774,1822.77C228.648,1812.31 207,1783.66 207,1750C207,1707.5 241.503,1673 284,1673C326.497,1673 361,1707.5 361,1750C361,1783.38 339.717,1811.82 309.995,1822.49L314.769,1862.05C341.968,1864.64 361,1870.56 361,1877.44C361,1884 343.666,1889.69 318.437,1892.45L323.182,1931.77C345.815,1934.7 361,1940.07 361,1946.22C361,1952.05 347.336,1957.19 326.612,1960.19L331.635,2001.82C349.513,2004.89 361,2009.66 361,2015C361,2020.03 350.838,2024.54 334.748,2027.62L343,2096L242,2096L246.076,2029.61C222.753,2026.72 207,2021.26 207,2015C207,2008.58 223.57,2003 247.883,2000.18L250.269,1961.31C224.658,1958.58 207,1952.85 207,1946.22C207,1939.43 225.518,1933.58 252.133,1930.94L254.466,1892.94C226.61,1890.41 207,1884.42 207,1877.44C207,1870.3 227.51,1864.19 256.38,1861.77L258.774,1822.77Z" style="fill:rgb(255,201,0);"/>
            </g>
            <g transform="matrix(0.639629,-1.11022e-16,1.11022e-16,0.639629,637.845,1077.95)">
                <path d="M258.774,1822.77C228.648,1812.31 207,1783.66 207,1750C207,1707.5 241.503,1673 284,1673C326.497,1673 361,1707.5 361,1750C361,1783.38 339.717,1811.82 309.995,1822.49L314.769,1862.05C341.968,1864.64 361,1870.56 361,1877.44C361,1884 343.666,1889.69 318.437,1892.45L323.182,1931.77C345.815,1934.7 361,1940.07 361,1946.22C361,1952.05 347.336,1957.19 326.612,1960.19L331.635,2001.82C349.513,2004.89 361,2009.66 361,2015C361,2020.03 350.838,2024.54 334.748,2027.62L343,2096L242,2096L246.076,2029.61C222.753,2026.72 207,2021.26 207,2015C207,2008.58 223.57,2003 247.883,2000.18L250.269,1961.31C224.658,1958.58 207,1952.85 207,1946.22C207,1939.43 225.518,1933.58 252.133,1930.94L254.466,1892.94C226.61,1890.41 207,1884.42 207,1877.44C207,1870.3 227.51,1864.19 256.38,1861.77L258.774,1822.77Z" style="fill:rgb(255,201,0);"/>
            </g>
            <g transform="matrix(0.297489,0.566238,-0.566238,0.297489,2302.12,1838.68)">
                <path d="M258.774,1822.77C228.648,1812.31 207,1783.66 207,1750C207,1707.5 241.503,1673 284,1673C326.497,1673 361,1707.5 361,1750C361,1783.38 339.717,1811.82 309.995,1822.49L314.769,1862.05C341.968,1864.64 361,1870.56 361,1877.44C361,1884 343.666,1889.69 318.437,1892.45L323.182,1931.77C345.815,1934.7 361,1940.07 361,1946.22C361,1952.05 347.336,1957.19 326.612,1960.19L331.635,2001.82C349.513,2004.89 361,2009.66 361,2015C361,2020.03 350.838,2024.54 334.748,2027.62L343,2096L242,2096L246.076,2029.61C222.753,2026.72 207,2021.26 207,2015C207,2008.58 223.57,2003 247.883,2000.18L250.269,1961.31C224.658,1958.58 207,1952.85 207,1946.22C207,1939.43 225.518,1933.58 252.133,1930.94L254.466,1892.94C226.61,1890.41 207,1884.42 207,1877.44C207,1870.3 227.51,1864.19 256.38,1861.77L258.774,1822.77Z" style="fill:rgb(255,201,0);"/>
            </g>
        </g>
    </g>
</svg>
