<?xml version="1.0" encoding="UTF-8" standalone="no"?>
<!DOCTYPE svg PUBLIC "-//W3C//DTD SVG 1.1//EN" "http://www.w3.org/Graphics/SVG/1.1/DTD/svg11.dtd">
<svg width="100%" height="100%" viewBox="0 0 668 652" version="1.1" xmlns="http://www.w3.org/2000/svg" xmlns:xlink="http://www.w3.org/1999/xlink" xml:space="preserve" xmlns:serif="http://www.serif.com/" style="fill-rule:evenodd;clip-rule:evenodd;stroke-linejoin:round;stroke-miterlimit:2;">
    <g transform="matrix(1,0,0,1,-1462.77,-489.434)">
        <g transform="matrix(0.869874,0,0,0.869874,1360.88,-879.002)">
            <g transform="matrix(1.14959,0,0,1.14959,-1564.45,1010.49)">
                <path d="M1833.1,911.323L1654.43,911.323L1654.43,875.969C1654.43,871.717 1650.98,868.264 1646.73,868.264C1642.47,868.264 1639.02,871.717 1639.02,875.969L1639.02,911.323L1511.36,911.323C1507.17,911.323 1503.75,914.671 1503.66,918.861L1502.32,980.731L1470.22,981.83C1465.97,981.975 1462.63,985.544 1462.78,989.795C1462.92,994.045 1466.49,997.378 1470.74,997.232L1501.98,996.163L1501.05,1038.9C1500.96,1042.97 1504.05,1046.4 1508.1,1046.75L1639.02,1057.87L1639.02,1107.21C1639.02,1111.46 1642.47,1114.91 1646.73,1114.91C1650.98,1114.91 1654.43,1111.46 1654.43,1107.21L1654.43,1059.18L1801.14,1071.65L1789.13,1131.95C1788.29,1136.12 1791.01,1140.18 1795.18,1141.01C1799.35,1141.84 1803.41,1139.13 1804.24,1134.96L1816.6,1072.96L1948.26,1084.15C1950.41,1084.34 1952.54,1083.61 1954.12,1082.15C1955.71,1080.69 1956.62,1078.63 1956.62,1076.47L1956.62,980.603L2031.16,978.052C2035.41,977.906 2038.74,974.338 2038.6,970.087C2038.45,965.837 2034.88,962.504 2030.63,962.65L1956.62,965.183L1956.62,919.028C1956.62,914.773 1953.17,911.323 1948.91,911.323L1848.82,911.323L1855.56,877.476C1856.39,873.305 1853.68,869.244 1849.51,868.413C1845.34,867.581 1841.28,870.292 1840.45,874.463L1833.1,911.323ZM1941.2,981.131L1834.17,984.794L1819.63,1057.76L1941.2,1068.09L1941.2,981.131ZM1654.43,990.945L1654.43,1043.72L1804.17,1056.44L1818.35,985.335L1654.43,990.945ZM1639.02,1042.41L1639.02,991.473L1517.41,995.635L1516.62,1032.01L1639.02,1042.41ZM1518.9,926.734L1517.74,980.203L1639.02,976.053L1639.02,926.734L1518.9,926.734ZM1654.43,926.734L1654.43,975.525L1821.44,969.809L1830.03,926.734L1654.43,926.734ZM1845.74,926.734L1837.27,969.268L1941.2,965.71L1941.2,926.734L1845.74,926.734ZM1469.93,536.427C1467.82,536.579 1465.86,537.59 1464.52,539.225C1463.18,540.86 1462.57,542.974 1462.83,545.072L1499.07,833.87C1499.56,837.725 1502.83,840.616 1506.72,840.616L2116.58,840.616C2120.78,840.616 2124.21,837.254 2124.28,833.055L2130.59,497.284C2130.63,495.119 2129.76,493.038 2128.19,491.548C2126.62,490.058 2124.49,489.298 2122.33,489.454L1469.93,536.427ZM1479.14,551.215L2115.02,505.431C2115.02,505.431 2109.02,825.205 2109.02,825.205C2109.02,825.205 1579.84,825.205 1513.52,825.205L1479.14,551.215Z" style="fill:rgb(255,242,192);"/>
            </g>
        </g>
    </g>
</svg>
