<?xml version="1.0" encoding="UTF-8" standalone="no"?>
<!DOCTYPE svg PUBLIC "-//W3C//DTD SVG 1.1//EN" "http://www.w3.org/Graphics/SVG/1.1/DTD/svg11.dtd">
<svg width="100%" height="100%" viewBox="0 0 316 401" version="1.1" xmlns="http://www.w3.org/2000/svg" xmlns:xlink="http://www.w3.org/1999/xlink" xml:space="preserve" xmlns:serif="http://www.serif.com/" style="fill-rule:evenodd;clip-rule:evenodd;stroke-linejoin:round;stroke-miterlimit:2;">
    <g transform="matrix(1,0,0,1,496.14,-1087.64)">
        <g>
            <g transform="matrix(-0.27185,5.55112e-17,0,0.292458,-1040.65,579.912)">
                <path d="M-2601.92,2147.72C-2477.31,2147.72 -2284.78,2069.5 -2199.65,2147.72C-2104.51,2235.13 -2123.84,2486.55 -2123.84,2625.8C-2123.84,2889.66 -2338.06,3103.88 -2601.92,3103.88C-2865.78,3103.88 -3080,2889.66 -3080,2625.8C-3080,2457.76 -3101.57,2232.98 -2970.31,2147.72C-2895.47,2099.1 -2697.74,2147.72 -2601.92,2147.72Z" style="fill:rgb(198,172,94);"/>
            </g>
            <g transform="matrix(1,0,0,1,109.417,-912.674)">
                <g>
                    <g transform="matrix(-0.363994,4.16334e-17,-4.16334e-17,0.368374,-1426.36,1297.96)">
                        <path d="M-2347.7,2234.96C-2362.84,2197.19 -2387.69,2165.41 -2427,2147.72C-2427,2147.72 -2255.01,1886.92 -2548,1907.84C-2840.99,1928.77 -2900.36,2116.75 -2928,2177.56C-2928,2177.56 -3029.97,2149.1 -3068.59,2249.22C-3049.21,2252.07 -3030.78,2257.07 -3017.03,2262.68C-2997.55,2270.64 -2984.81,2281.09 -2976.67,2290.76C-2923.47,2246.34 -2596.19,2206.85 -2427,2271L-2422.51,2291.95C-2413.36,2280.23 -2389.72,2251.62 -2371.4,2242.92C-2365.4,2240.07 -2357.21,2237.29 -2347.7,2234.96Z" style="fill:rgb(110,70,7);"/>
                    </g>
                    <g transform="matrix(-0.363994,4.16334e-17,-4.16334e-17,0.368374,-1426.36,1297.96)">
                        <path d="M-3068.59,2249.22C-3088.14,2299.31 -3091.68,2381.76 -3058.52,2516.27C-3058.52,2516.27 -3006.07,2345.01 -2983,2298C-2981.8,2295.55 -2979.7,2293.1 -2976.67,2290.76C-2984.81,2281.09 -2997.55,2270.64 -3017.03,2262.68C-3030.78,2257.07 -3049.21,2252.07 -3068.59,2249.22Z" style="fill:rgb(237,226,207);"/>
                    </g>
                    <g transform="matrix(-0.363994,4.16334e-17,-4.16334e-17,0.368374,-1426.36,1297.96)">
                        <path d="M-2347.7,2234.96C-2357.21,2237.29 -2365.4,2240.07 -2371.4,2242.92C-2389.72,2251.62 -2413.36,2280.23 -2422.51,2291.95C-2411.15,2344.37 -2379.01,2479.52 -2344.41,2516.27C-2344.41,2516.27 -2302.09,2348.58 -2347.7,2234.96Z" style="fill:rgb(237,226,207);"/>
                    </g>
                </g>
            </g>
            <g transform="matrix(0.93931,0.343069,-0.343069,0.93931,891.825,-230.424)">
                <path d="M-625.913,1836.26L-649.188,1845.05C-748.001,1850.3 -780.906,1896.28 -780.906,1896.28C-782.826,1898.89 -783.143,1902.34 -781.729,1905.25C-757.328,1955.46 -735.395,1964.09 -735.395,1964.09C-734.622,1964.42 -733.804,1964.64 -732.968,1964.74C-700.146,1968.66 -664.069,1949.36 -660.896,1947.61C-632.346,1933.13 -627.021,1908.14 -629.063,1886.65C-630.121,1875.52 -633.233,1865.42 -635.812,1858.6L-626.993,1855.27C-624.42,1862.09 -620.08,1871.73 -613.514,1880.78C-600.845,1898.26 -580.335,1913.48 -549.312,1905.48C-545.747,1904.68 -505.951,1895.32 -483.93,1870.7C-483.368,1870.07 -482.901,1869.36 -482.542,1868.6C-482.542,1868.6 -471.786,1847.63 -486.663,1793.83C-487.526,1790.71 -490.047,1788.32 -493.21,1787.64C-493.21,1787.64 -548.296,1774.88 -625.913,1836.26ZM-763.467,1902.87C-753.615,1893.12 -721.451,1867.39 -652.872,1862.71C-650.635,1868.23 -647.396,1877.7 -646.388,1888.3C-644.925,1903.69 -648.375,1921.79 -668.898,1932.16C-669.026,1932.22 -669.154,1932.29 -669.279,1932.36C-669.279,1932.36 -700.429,1950.31 -729.333,1947.63C-732.858,1945.46 -746.8,1935.35 -763.467,1902.87L-763.467,1902.87ZM-501.941,1804.11C-492.98,1839.5 -496.758,1856.3 -497.968,1860.26C-517.886,1881.38 -553.124,1888.5 -553.124,1888.5C-553.265,1888.53 -553.406,1888.56 -553.545,1888.6C-575.797,1894.39 -590.348,1883.09 -599.425,1870.57C-605.677,1861.94 -609.509,1852.69 -611.477,1847.08C-556.921,1805.26 -515.776,1803.31 -501.941,1804.11L-501.941,1804.11Z" style="fill:rgb(30,19,0);"/>
            </g>
        </g>
    </g>
</svg>
