<?xml version="1.0" encoding="UTF-8" standalone="no"?>
<!DOCTYPE svg PUBLIC "-//W3C//DTD SVG 1.1//EN" "http://www.w3.org/Graphics/SVG/1.1/DTD/svg11.dtd">
<svg width="100%" height="100%" viewBox="0 0 602 1044" version="1.1" xmlns="http://www.w3.org/2000/svg" xmlns:xlink="http://www.w3.org/1999/xlink" xml:space="preserve" xmlns:serif="http://www.serif.com/" style="fill-rule:evenodd;clip-rule:evenodd;stroke-linejoin:round;stroke-miterlimit:2;">
    <g transform="matrix(1,0,0,1,-213.786,-235)">
        <g transform="matrix(1,0,0,1,121.621,-1021)">
            <g transform="matrix(0.576341,0,0,0.576341,195.856,923.152)">
                <path d="M79,1886C-41.715,1936.83 -199.065,2155.46 -178,2388C-178,2388 0.169,2282.69 79,2338.28C79,2338.28 85.885,1883.1 79,1886Z" style="fill:rgb(255,242,192);"/>
            </g>
        </g>
        <g transform="matrix(1,0,0,1,121.621,-1021)">
            <g transform="matrix(-0.576341,0,0,0.576341,589.718,923.152)">
                <path d="M79,1886C-41.715,1936.83 -199.065,2155.46 -178,2388C-178,2388 0.169,2282.69 79,2338.28C79,2338.28 85.885,1883.1 79,1886Z" style="fill:rgb(255,242,192);"/>
            </g>
        </g>
        <g transform="matrix(1,0,0,1,121.621,-1021)">
            <g transform="matrix(0.622281,0,0,1.44444,148.399,-878.889)">
                <path d="M399.5,1478L594,1712L205,1712L399.5,1478Z" style="fill:rgb(255,242,192);"/>
            </g>
        </g>
        <g transform="matrix(1,0,0,1,121.621,-1021)">
            <g transform="matrix(1,0,0,1,205,-262.546)">
                <path d="M384,2562L0,2562L96,1829L288,1829L384,2562Z" style="fill:rgb(255,242,192);"/>
            </g>
        </g>
    </g>
</svg>
